<mxfile host="app.diagrams.net" modified="2023-01-14T18:08:31.772Z" agent="5.0 (Windows NT 10.0; Win64; x64) AppleWebKit/537.36 (KHTML, like Gecko) Chrome/108.0.0.0 Safari/537.36" etag="axntZ_9QbnVlIcmY0osa" version="20.8.5" type="github">
  <diagram id="-GaPFA7t-93g9XGN7D-P" name="Page-1">
    <mxGraphModel dx="1434" dy="796" grid="1" gridSize="10" guides="1" tooltips="1" connect="1" arrows="1" fold="1" page="1" pageScale="1" pageWidth="850" pageHeight="1100" math="0" shadow="0">
      <root>
        <mxCell id="0" />
        <mxCell id="1" parent="0" />
        <mxCell id="MdZ06SbCLfKT6W0_UMcC-1" value="RoboRIO" style="rounded=0;whiteSpace=wrap;html=1;fillColor=#f5f5f5;fontColor=#333333;strokeColor=#666666;" parent="1" vertex="1">
          <mxGeometry x="140" y="180" width="220" height="200" as="geometry" />
        </mxCell>
        <mxCell id="MdZ06SbCLfKT6W0_UMcC-2" value="Battery" style="rounded=0;whiteSpace=wrap;html=1;" parent="1" vertex="1">
          <mxGeometry x="150" y="545" width="180" height="65" as="geometry" />
        </mxCell>
        <mxCell id="MdZ06SbCLfKT6W0_UMcC-3" value="-" style="rounded=0;whiteSpace=wrap;html=1;fillColor=#f5f5f5;fontColor=#333333;strokeColor=#666666;fontSize=19;fontStyle=1" parent="1" vertex="1">
          <mxGeometry x="150" y="510" width="90" height="35" as="geometry" />
        </mxCell>
        <mxCell id="MdZ06SbCLfKT6W0_UMcC-4" value="+" style="rounded=0;whiteSpace=wrap;html=1;fillColor=#f8cecc;strokeColor=#b85450;fontSize=19;fontStyle=1" parent="1" vertex="1">
          <mxGeometry x="240" y="510" width="90" height="35" as="geometry" />
        </mxCell>
        <mxCell id="4WWuaWpeMhA_KQbBw31i-1" value="Front-Left Motor Controller&lt;br&gt;CAN ID: XX" style="rounded=0;whiteSpace=wrap;html=1;fontSize=12;" vertex="1" parent="1">
          <mxGeometry x="570" y="200" width="120" height="60" as="geometry" />
        </mxCell>
        <mxCell id="4WWuaWpeMhA_KQbBw31i-2" value="Front-Right Motor Controller&lt;br&gt;CAN ID: XX" style="rounded=0;whiteSpace=wrap;html=1;fontSize=12;" vertex="1" parent="1">
          <mxGeometry x="570" y="270" width="120" height="60" as="geometry" />
        </mxCell>
        <mxCell id="4WWuaWpeMhA_KQbBw31i-3" value="Rear-Left Motor Controller&lt;br&gt;CAN ID: XX" style="rounded=0;whiteSpace=wrap;html=1;fontSize=12;" vertex="1" parent="1">
          <mxGeometry x="570" y="340" width="120" height="60" as="geometry" />
        </mxCell>
        <mxCell id="4WWuaWpeMhA_KQbBw31i-4" value="Rear-Right Motor Controller&lt;br&gt;CAN ID: XX" style="rounded=0;whiteSpace=wrap;html=1;fontSize=12;" vertex="1" parent="1">
          <mxGeometry x="570" y="410" width="120" height="60" as="geometry" />
        </mxCell>
      </root>
    </mxGraphModel>
  </diagram>
</mxfile>
